<svg width="76" height="21" viewBox="0 0 76 21" fill="none" xmlns="http://www.w3.org/2000/svg">
<path d="M3.18007 6.00455C3.54007 5.47122 4.0334 5.03788 4.66007 4.70455C5.30007 4.37122 6.02673 4.20455 6.84007 4.20455C7.78673 4.20455 8.64007 4.43788 9.40007 4.90455C10.1734 5.37122 10.7801 6.03788 11.2201 6.90455C11.6734 7.75788 11.9001 8.75122 11.9001 9.88455C11.9001 11.0179 11.6734 12.0246 11.2201 12.9046C10.7801 13.7712 10.1734 14.4446 9.40007 14.9246C8.64007 15.4046 7.78673 15.6446 6.84007 15.6446C6.0134 15.6446 5.28673 15.4846 4.66007 15.1646C4.04673 14.8312 3.5534 14.4046 3.18007 13.8846V15.4646H0.380066V0.664551H3.18007V6.00455ZM9.04007 9.88455C9.04007 9.21788 8.90007 8.64455 8.62007 8.16455C8.3534 7.67122 7.9934 7.29788 7.54007 7.04455C7.10007 6.79122 6.62007 6.66455 6.10007 6.66455C5.5934 6.66455 5.1134 6.79788 4.66007 7.06455C4.22007 7.31788 3.86007 7.69122 3.58007 8.18455C3.3134 8.67788 3.18007 9.25788 3.18007 9.92455C3.18007 10.5912 3.3134 11.1712 3.58007 11.6646C3.86007 12.1579 4.22007 12.5379 4.66007 12.8046C5.1134 13.0579 5.5934 13.1846 6.10007 13.1846C6.62007 13.1846 7.10007 13.0512 7.54007 12.7846C7.9934 12.5179 8.3534 12.1379 8.62007 11.6446C8.90007 11.1512 9.04007 10.5646 9.04007 9.88455Z" fill="#051441"/>
<path d="M24.2348 9.68455C24.2348 10.0846 24.2081 10.4446 24.1548 10.7646H16.0548C16.1214 11.5646 16.4014 12.1912 16.8948 12.6446C17.3881 13.0979 17.9948 13.3246 18.7148 13.3246C19.7548 13.3246 20.4948 12.8779 20.9348 11.9846H23.9548C23.6348 13.0512 23.0214 13.9312 22.1148 14.6246C21.2081 15.3046 20.0948 15.6446 18.7748 15.6446C17.7081 15.6446 16.7481 15.4112 15.8948 14.9446C15.0548 14.4646 14.3948 13.7912 13.9148 12.9246C13.4481 12.0579 13.2148 11.0579 13.2148 9.92455C13.2148 8.77788 13.4481 7.77122 13.9148 6.90455C14.3814 6.03788 15.0348 5.37122 15.8748 4.90455C16.7148 4.43788 17.6814 4.20455 18.7748 4.20455C19.8281 4.20455 20.7681 4.43122 21.5948 4.88455C22.4348 5.33788 23.0814 5.98455 23.5348 6.82455C24.0014 7.65122 24.2348 8.60455 24.2348 9.68455ZM21.3348 8.88455C21.3214 8.16455 21.0614 7.59122 20.5548 7.16455C20.0481 6.72455 19.4281 6.50455 18.6948 6.50455C18.0014 6.50455 17.4148 6.71788 16.9348 7.14455C16.4681 7.55788 16.1814 8.13788 16.0748 8.88455H21.3348Z" fill="#051441"/>
<path d="M36.8785 4.38455L30.0185 20.7046H27.0385L29.4385 15.1846L24.9985 4.38455H28.1385L30.9985 12.1246L33.8985 4.38455H36.8785Z" fill="#051441"/>
<path d="M43.3079 15.6446C42.2412 15.6446 41.2812 15.4112 40.4279 14.9446C39.5745 14.4646 38.9012 13.7912 38.4079 12.9246C37.9279 12.0579 37.6879 11.0579 37.6879 9.92455C37.6879 8.79122 37.9345 7.79122 38.4279 6.92455C38.9345 6.05788 39.6212 5.39122 40.4879 4.92455C41.3545 4.44455 42.3212 4.20455 43.3879 4.20455C44.4545 4.20455 45.4212 4.44455 46.2879 4.92455C47.1545 5.39122 47.8345 6.05788 48.3279 6.92455C48.8345 7.79122 49.0879 8.79122 49.0879 9.92455C49.0879 11.0579 48.8279 12.0579 48.3079 12.9246C47.8012 13.7912 47.1079 14.4646 46.2279 14.9446C45.3612 15.4112 44.3879 15.6446 43.3079 15.6446ZM43.3079 13.2046C43.8145 13.2046 44.2879 13.0846 44.7279 12.8446C45.1812 12.5912 45.5412 12.2179 45.8079 11.7246C46.0745 11.2312 46.2079 10.6312 46.2079 9.92455C46.2079 8.87122 45.9279 8.06455 45.3679 7.50455C44.8212 6.93122 44.1479 6.64455 43.3479 6.64455C42.5479 6.64455 41.8745 6.93122 41.3279 7.50455C40.7945 8.06455 40.5279 8.87122 40.5279 9.92455C40.5279 10.9779 40.7879 11.7912 41.3079 12.3646C41.8412 12.9246 42.5079 13.2046 43.3079 13.2046Z" fill="#051441"/>
<path d="M57.2818 4.22455C58.6018 4.22455 59.6685 4.64455 60.4818 5.48455C61.2951 6.31122 61.7018 7.47122 61.7018 8.96455V15.4646H58.9018V9.34455C58.9018 8.46455 58.6818 7.79122 58.2418 7.32455C57.8018 6.84455 57.2018 6.60455 56.4418 6.60455C55.6684 6.60455 55.0551 6.84455 54.6018 7.32455C54.1618 7.79122 53.9418 8.46455 53.9418 9.34455V15.4646H51.1418V4.38455H53.9418V5.76455C54.3151 5.28455 54.7885 4.91122 55.3618 4.64455C55.9485 4.36455 56.5885 4.22455 57.2818 4.22455Z" fill="#051441"/>
<path d="M63.6444 9.88455C63.6444 8.76455 63.8644 7.77122 64.3044 6.90455C64.7578 6.03788 65.3711 5.37122 66.1444 4.90455C66.9178 4.43788 67.7778 4.20455 68.7244 4.20455C69.4444 4.20455 70.1311 4.36455 70.7844 4.68455C71.4378 4.99122 71.9578 5.40455 72.3444 5.92455V0.664551H75.1844V15.4646H72.3444V13.8246C71.9978 14.3712 71.5111 14.8112 70.8844 15.1446C70.2578 15.4779 69.5311 15.6446 68.7044 15.6446C67.7711 15.6446 66.9178 15.4046 66.1444 14.9246C65.3711 14.4446 64.7578 13.7712 64.3044 12.9046C63.8644 12.0246 63.6444 11.0179 63.6444 9.88455ZM72.3644 9.92455C72.3644 9.24455 72.2311 8.66455 71.9644 8.18455C71.6978 7.69122 71.3378 7.31788 70.8844 7.06455C70.4311 6.79788 69.9444 6.66455 69.4244 6.66455C68.9044 6.66455 68.4244 6.79122 67.9844 7.04455C67.5444 7.29788 67.1844 7.67122 66.9044 8.16455C66.6378 8.64455 66.5044 9.21788 66.5044 9.88455C66.5044 10.5512 66.6378 11.1379 66.9044 11.6446C67.1844 12.1379 67.5444 12.5179 67.9844 12.7846C68.4378 13.0512 68.9178 13.1846 69.4244 13.1846C69.9444 13.1846 70.4311 13.0579 70.8844 12.8046C71.3378 12.5379 71.6978 12.1646 71.9644 11.6846C72.2311 11.1912 72.3644 10.6046 72.3644 9.92455Z" fill="#051441"/>
</svg>
